<mxfile host="Electron" modified="2023-08-28T13:55:21.527Z" agent="Mozilla/5.0 (Windows NT 10.0; Win64; x64) AppleWebKit/537.36 (KHTML, like Gecko) draw.io/21.3.7 Chrome/112.0.5615.204 Electron/24.5.0 Safari/537.36" etag="z4JQd46ows_aGg80j2EB" version="21.3.7" type="device">
  <diagram name="Page-1" id="vID8HpEUAzMCHLYcZwtL">
    <mxGraphModel dx="1954" dy="516" grid="1" gridSize="10" guides="1" tooltips="1" connect="1" arrows="1" fold="1" page="1" pageScale="1" pageWidth="850" pageHeight="1100" math="0" shadow="0">
      <root>
        <mxCell id="0" />
        <mxCell id="1" parent="0" />
        <mxCell id="_hkP8uUhUcBYJj01rjYP-1" value="" style="whiteSpace=wrap;html=1;aspect=fixed;" vertex="1" parent="1">
          <mxGeometry x="190" y="70" width="470" height="470" as="geometry" />
        </mxCell>
        <mxCell id="_hkP8uUhUcBYJj01rjYP-2" value="First Name" style="rounded=1;whiteSpace=wrap;html=1;" vertex="1" parent="1">
          <mxGeometry x="220" y="90" width="120" height="30" as="geometry" />
        </mxCell>
        <mxCell id="_hkP8uUhUcBYJj01rjYP-3" value="Middle Name" style="rounded=1;whiteSpace=wrap;html=1;" vertex="1" parent="1">
          <mxGeometry x="380" y="90" width="120" height="30" as="geometry" />
        </mxCell>
        <mxCell id="_hkP8uUhUcBYJj01rjYP-4" value="Last Name" style="rounded=1;whiteSpace=wrap;html=1;" vertex="1" parent="1">
          <mxGeometry x="530" y="90" width="120" height="30" as="geometry" />
        </mxCell>
        <mxCell id="_hkP8uUhUcBYJj01rjYP-5" value="Email ID" style="rounded=1;whiteSpace=wrap;html=1;" vertex="1" parent="1">
          <mxGeometry x="220" y="150" width="310" height="30" as="geometry" />
        </mxCell>
        <mxCell id="_hkP8uUhUcBYJj01rjYP-6" value="Password" style="rounded=1;whiteSpace=wrap;html=1;" vertex="1" parent="1">
          <mxGeometry x="220" y="210" width="310" height="30" as="geometry" />
        </mxCell>
        <mxCell id="_hkP8uUhUcBYJj01rjYP-7" value="Confirm Password" style="rounded=1;whiteSpace=wrap;html=1;" vertex="1" parent="1">
          <mxGeometry x="220" y="260" width="310" height="30" as="geometry" />
        </mxCell>
        <mxCell id="_hkP8uUhUcBYJj01rjYP-8" value="DOB" style="shape=internalStorage;whiteSpace=wrap;html=1;backgroundOutline=1;" vertex="1" parent="1">
          <mxGeometry x="220" y="310" width="80" height="80" as="geometry" />
        </mxCell>
        <mxCell id="_hkP8uUhUcBYJj01rjYP-9" value="LinkdIn Profile" style="rounded=0;whiteSpace=wrap;html=1;" vertex="1" parent="1">
          <mxGeometry x="220" y="410" width="310" height="30" as="geometry" />
        </mxCell>
        <mxCell id="_hkP8uUhUcBYJj01rjYP-10" value="GitHub Profile" style="rounded=0;whiteSpace=wrap;html=1;" vertex="1" parent="1">
          <mxGeometry x="220" y="460" width="310" height="30" as="geometry" />
        </mxCell>
        <mxCell id="_hkP8uUhUcBYJj01rjYP-11" value="Submit" style="shape=process;whiteSpace=wrap;html=1;backgroundOutline=1;" vertex="1" parent="1">
          <mxGeometry x="220" y="500" width="120" height="30" as="geometry" />
        </mxCell>
        <mxCell id="_hkP8uUhUcBYJj01rjYP-14" value="" style="edgeStyle=orthogonalEdgeStyle;rounded=0;orthogonalLoop=1;jettySize=auto;html=1;" edge="1" parent="1">
          <mxGeometry relative="1" as="geometry">
            <mxPoint x="110" y="104.5" as="sourcePoint" />
            <mxPoint x="100" y="104.5" as="targetPoint" />
            <Array as="points">
              <mxPoint x="210" y="105" />
              <mxPoint x="210" y="105" />
            </Array>
          </mxGeometry>
        </mxCell>
        <mxCell id="_hkP8uUhUcBYJj01rjYP-13" value="Characters Only&lt;br&gt;Ex -&amp;nbsp; A,a" style="text;html=1;align=center;verticalAlign=middle;resizable=0;points=[];autosize=1;strokeColor=none;fillColor=none;" vertex="1" parent="1">
          <mxGeometry x="-10" y="80" width="110" height="40" as="geometry" />
        </mxCell>
        <mxCell id="_hkP8uUhUcBYJj01rjYP-15" value="" style="edgeStyle=orthogonalEdgeStyle;rounded=0;orthogonalLoop=1;jettySize=auto;html=1;" edge="1" parent="1">
          <mxGeometry relative="1" as="geometry">
            <mxPoint x="110" y="164.5" as="sourcePoint" />
            <mxPoint x="100" y="164.5" as="targetPoint" />
            <Array as="points">
              <mxPoint x="210" y="165" />
              <mxPoint x="210" y="165" />
            </Array>
          </mxGeometry>
        </mxCell>
        <mxCell id="_hkP8uUhUcBYJj01rjYP-16" value="Vaild Email ID&amp;nbsp;&lt;br&gt;Ex - abc@xyz.com" style="text;html=1;align=center;verticalAlign=middle;resizable=0;points=[];autosize=1;strokeColor=none;fillColor=none;" vertex="1" parent="1">
          <mxGeometry x="-30" y="143" width="120" height="40" as="geometry" />
        </mxCell>
        <mxCell id="_hkP8uUhUcBYJj01rjYP-17" value="Should be 8 char, min 1 no.&amp;nbsp;&lt;br&gt;and 1 secial char&lt;br&gt;Ex - abc@1" style="text;html=1;align=center;verticalAlign=middle;resizable=0;points=[];autosize=1;strokeColor=none;fillColor=none;" vertex="1" parent="1">
          <mxGeometry x="-55" y="190" width="170" height="60" as="geometry" />
        </mxCell>
        <mxCell id="_hkP8uUhUcBYJj01rjYP-18" value="" style="edgeStyle=orthogonalEdgeStyle;rounded=0;orthogonalLoop=1;jettySize=auto;html=1;" edge="1" parent="1">
          <mxGeometry relative="1" as="geometry">
            <mxPoint x="110" y="219.5" as="sourcePoint" />
            <mxPoint x="100" y="219.5" as="targetPoint" />
            <Array as="points">
              <mxPoint x="210" y="220" />
              <mxPoint x="210" y="220" />
            </Array>
          </mxGeometry>
        </mxCell>
        <mxCell id="_hkP8uUhUcBYJj01rjYP-19" value="" style="edgeStyle=orthogonalEdgeStyle;rounded=0;orthogonalLoop=1;jettySize=auto;html=1;" edge="1" parent="1">
          <mxGeometry relative="1" as="geometry">
            <mxPoint x="110" y="274.5" as="sourcePoint" />
            <mxPoint x="100" y="274.5" as="targetPoint" />
            <Array as="points">
              <mxPoint x="210" y="275" />
              <mxPoint x="210" y="275" />
            </Array>
          </mxGeometry>
        </mxCell>
        <mxCell id="_hkP8uUhUcBYJj01rjYP-21" value="Should be 8 char, min 1 no.&amp;nbsp;&lt;br&gt;and 1 secial char&lt;br&gt;Ex - abc@1" style="text;html=1;align=center;verticalAlign=middle;resizable=0;points=[];autosize=1;strokeColor=none;fillColor=none;" vertex="1" parent="1">
          <mxGeometry x="-55" y="245" width="170" height="60" as="geometry" />
        </mxCell>
        <mxCell id="_hkP8uUhUcBYJj01rjYP-22" value="Chalender" style="text;html=1;align=center;verticalAlign=middle;resizable=0;points=[];autosize=1;strokeColor=none;fillColor=none;" vertex="1" parent="1">
          <mxGeometry y="335" width="80" height="30" as="geometry" />
        </mxCell>
        <mxCell id="_hkP8uUhUcBYJj01rjYP-23" value="Aceept Valid LindIn URL" style="text;html=1;align=center;verticalAlign=middle;resizable=0;points=[];autosize=1;strokeColor=none;fillColor=none;" vertex="1" parent="1">
          <mxGeometry x="-45" y="408" width="150" height="30" as="geometry" />
        </mxCell>
        <mxCell id="_hkP8uUhUcBYJj01rjYP-24" value="" style="edgeStyle=orthogonalEdgeStyle;rounded=0;orthogonalLoop=1;jettySize=auto;html=1;" edge="1" parent="1">
          <mxGeometry relative="1" as="geometry">
            <mxPoint x="110" y="349.5" as="sourcePoint" />
            <mxPoint x="100" y="349.5" as="targetPoint" />
            <Array as="points">
              <mxPoint x="210" y="350" />
              <mxPoint x="210" y="350" />
            </Array>
          </mxGeometry>
        </mxCell>
        <mxCell id="_hkP8uUhUcBYJj01rjYP-25" value="" style="edgeStyle=orthogonalEdgeStyle;rounded=0;orthogonalLoop=1;jettySize=auto;html=1;" edge="1" parent="1">
          <mxGeometry relative="1" as="geometry">
            <mxPoint x="115" y="424.5" as="sourcePoint" />
            <mxPoint x="105" y="424.5" as="targetPoint" />
            <Array as="points">
              <mxPoint x="215" y="425" />
              <mxPoint x="215" y="425" />
            </Array>
          </mxGeometry>
        </mxCell>
        <mxCell id="_hkP8uUhUcBYJj01rjYP-27" value="Aceept Valid LindIn URL" style="text;html=1;align=center;verticalAlign=middle;resizable=0;points=[];autosize=1;strokeColor=none;fillColor=none;" vertex="1" parent="1">
          <mxGeometry x="-45" y="460" width="150" height="30" as="geometry" />
        </mxCell>
        <mxCell id="_hkP8uUhUcBYJj01rjYP-28" value="" style="edgeStyle=orthogonalEdgeStyle;rounded=0;orthogonalLoop=1;jettySize=auto;html=1;" edge="1" parent="1">
          <mxGeometry relative="1" as="geometry">
            <mxPoint x="115" y="474.5" as="sourcePoint" />
            <mxPoint x="105" y="474.5" as="targetPoint" />
            <Array as="points">
              <mxPoint x="215" y="475" />
              <mxPoint x="215" y="475" />
            </Array>
          </mxGeometry>
        </mxCell>
        <mxCell id="_hkP8uUhUcBYJj01rjYP-29" value="Submit Button" style="text;html=1;align=center;verticalAlign=middle;resizable=0;points=[];autosize=1;strokeColor=none;fillColor=none;" vertex="1" parent="1">
          <mxGeometry x="-20" y="500" width="100" height="30" as="geometry" />
        </mxCell>
        <mxCell id="_hkP8uUhUcBYJj01rjYP-30" value="" style="edgeStyle=orthogonalEdgeStyle;rounded=0;orthogonalLoop=1;jettySize=auto;html=1;" edge="1" parent="1">
          <mxGeometry relative="1" as="geometry">
            <mxPoint x="115" y="514.5" as="sourcePoint" />
            <mxPoint x="105" y="514.5" as="targetPoint" />
            <Array as="points">
              <mxPoint x="215" y="515" />
              <mxPoint x="215" y="515" />
            </Array>
          </mxGeometry>
        </mxCell>
      </root>
    </mxGraphModel>
  </diagram>
</mxfile>
